<svg xmlns="http://www.w3.org/2000/svg" xmlns:xlink="http://www.w3.org/1999/xlink" viewBox="0,0,256,256" width="48px" height="48px"><defs><linearGradient x1="5" y1="27" x2="44" y2="27" gradientUnits="userSpaceOnUse" id="color-1"><stop offset="0" stop-color="#b31d1d"></stop><stop offset="1" stop-color="#bc1952"></stop></linearGradient></defs><g fill="#000000" fill-rule="nonzero" stroke="none" stroke-width="1" stroke-linecap="butt" stroke-linejoin="miter" stroke-miterlimit="10" stroke-dasharray="" stroke-dashoffset="0" font-family="none" font-weight="none" font-size="none" text-anchor="none" style="mix-blend-mode: normal"><path d="M64,256c-35.34622,0 -64,-28.65378 -64,-64v-128c0,-35.34622 28.65378,-64 64,-64h128c35.34622,0 64,28.65378 64,64v128c0,35.34622 -28.65378,64 -64,64z" id="shape"></path></g><g fill="none" fill-rule="nonzero" stroke="none" stroke-width="1" stroke-linecap="butt" stroke-linejoin="miter" stroke-miterlimit="10" stroke-dasharray="" stroke-dashoffset="0" font-family="none" font-weight="none" font-size="none" text-anchor="none" style="mix-blend-mode: normal"><g transform="scale(5.33333,5.33333)"><circle cx="33" cy="40" r="1" fill="#454545"></circle><circle cx="15" cy="40" r="1" fill="#454545"></circle><circle cx="33" cy="36" r="1" fill="#454545"></circle><circle cx="15" cy="36" r="1" fill="#454545"></circle><circle cx="33" cy="32" r="1" fill="#454545"></circle><circle cx="15" cy="32" r="1" fill="#454545"></circle><circle cx="33" cy="28" r="1" fill="#454545"></circle><circle cx="15" cy="24" r="1" fill="#454545"></circle><circle cx="33" cy="20" r="1" fill="#454545"></circle><circle cx="15" cy="20" r="1" fill="#454545"></circle><circle cx="33" cy="12" r="1" fill="#454545"></circle><circle cx="15" cy="12" r="1" fill="#454545"></circle><circle cx="33" cy="8" r="1" fill="#454545"></circle><circle cx="15" cy="8" r="1" fill="#454545"></circle><circle cx="42" cy="41" r="1" fill="#969696"></circle><circle cx="6" cy="41" r="1" fill="#969696"></circle><rect x="6" y="40" width="36" height="2" fill="#969696"></rect><path d="M6,20c-0.219,0 -0.44,-0.072 -0.624,-0.219c-0.432,-0.345 -0.501,-0.974 -0.156,-1.405l4,-5c0.274,-0.344 0.742,-0.466 1.152,-0.304l4.82,1.928h2.808c0.107,0 0.214,0.017 0.316,0.051l2.414,0.805l5.563,-5.563c0.366,-0.366 0.951,-0.393 1.347,-0.061l5.393,4.494l3.367,-2.526c0.304,-0.227 0.708,-0.265 1.047,-0.095l1.21,0.605l3.51,-5.266c0.306,-0.46 0.926,-0.585 1.387,-0.277c0.459,0.306 0.583,0.927 0.277,1.387l-4,6c-0.28,0.42 -0.827,0.564 -1.279,0.34l-1.447,-0.724l-3.505,2.63c-0.371,0.278 -0.883,0.266 -1.24,-0.032l-5.298,-4.415l-5.354,5.354c-0.268,0.268 -0.663,0.362 -1.023,0.242l-2.847,-0.949h-2.838c-0.127,0 -0.253,-0.024 -0.372,-0.071l-4.311,-1.725l-3.537,4.42c-0.197,0.248 -0.488,0.376 -0.78,0.376z" fill="#28e7ea"></path><path d="M9,32c-0.194,0 -0.388,-0.057 -0.555,-0.168l-3,-2c-0.459,-0.306 -0.583,-0.927 -0.277,-1.387c0.306,-0.46 0.926,-0.585 1.387,-0.277l2.517,1.678l5.481,-2.741c0.237,-0.118 0.512,-0.138 0.764,-0.054l2.536,0.845l2.593,-1.729c0.163,-0.108 0.357,-0.167 0.554,-0.167h5.764l5.789,-2.895c0.281,-0.141 0.613,-0.141 0.895,0l3.355,1.678l1.49,-1.49c0.128,-0.128 0.289,-0.219 0.464,-0.263l4,-1c0.535,-0.135 1.079,0.192 1.213,0.728c0.134,0.536 -0.192,1.079 -0.728,1.213l-3.731,0.933l-1.804,1.804c-0.303,0.304 -0.768,0.38 -1.154,0.188l-3.553,-1.778l-5.553,2.776c-0.138,0.07 -0.292,0.106 -0.447,0.106h-5.697l-2.748,1.832c-0.256,0.171 -0.577,0.214 -0.871,0.117l-2.607,-0.869l-5.629,2.815c-0.142,0.07 -0.295,0.105 -0.448,0.105z" fill="url(#color-1)"></path></g></g></svg>